<?xml version="1.0" encoding="UTF-8"?>
<!-- Generated by Pixelmator Pro 3.7.1 -->
<svg width="23" height="23" viewBox="0 0 23 23" xmlns="http://www.w3.org/2000/svg">
    <path id="-copy" fill="#000000" fill-rule="evenodd" stroke="none" d="M 4.412895 22.28628 C 4.187329 22.114956 4.050885 21.88829 4.003553 21.606279 C 3.956217 21.32427 3.997265 20.990086 4.126695 20.603731 L 6.260201 14.261814 L 0.821045 10.363381 C 0.486773 10.12106 0.252552 9.872087 0.118369 9.61646 C -0.015817 9.360833 -0.035917 9.096743 0.058072 8.824187 C 0.144809 8.558879 0.317063 8.362247 0.574845 8.234293 C 0.832623 8.106338 1.165953 8.04236 1.574846 8.04236 L 8.252556 8.04236 L 10.277355 1.709276 C 10.40611 1.314995 10.571171 1.016056 10.772557 0.81246 C 10.973952 0.608864 11.214879 0.507067 11.495361 0.507067 C 11.782417 0.507067 12.0266 0.608864 12.227931 0.81246 C 12.429269 1.016056 12.594357 1.314995 12.723218 1.709276 L 14.749037 8.04236 L 21.424719 8.04236 C 21.834288 8.04236 22.167953 8.106536 22.425739 8.234887 C 22.683517 8.363238 22.855774 8.560012 22.942513 8.825207 C 23.035818 9.097082 23.015549 9.360833 22.881706 9.61646 C 22.747856 9.872087 22.513807 10.12106 22.179539 10.363381 L 16.740376 14.261814 L 18.873713 20.603731 C 19.00326 20.990086 19.044525 21.32427 18.997534 21.606279 C 18.950541 21.88829 18.81427 22.114956 18.588701 22.28628 C 18.362459 22.464172 18.106527 22.527214 17.820887 22.47541 C 17.535254 22.423605 17.225309 22.275806 16.891035 22.032013 L 11.495361 18.068357 L 6.108353 22.032013 C 5.774761 22.275806 5.465154 22.423605 5.17952 22.47541 C 4.893883 22.527214 4.638345 22.464172 4.412895 22.28628 Z"/>
</svg>
