<?xml version="1.0" encoding="UTF-8"?>
<!-- Generated by Pixelmator Pro 3.7.1 -->
<svg width="33" height="48" viewBox="0 0 33 48" xmlns="http://www.w3.org/2000/svg">
    <path id="-copy" fill="#000000" fill-rule="evenodd" stroke="none" d="M 16.515776 0 C 19.822193 0.001553 22.712776 0.673382 25.187611 2.015507 C 27.662445 3.357632 29.587841 5.237106 30.963854 7.653992 C 32.33987 10.070881 33.027866 12.891098 33.027866 16.114733 C 33.027866 17.675976 32.850853 19.229368 32.496826 20.774958 C 32.142799 22.320549 31.706251 23.792389 31.187174 25.190523 C 30.668097 26.588655 30.15349 27.842482 29.643337 28.952038 C 28.389946 31.758135 26.806803 34.643024 24.893862 37.606796 C 22.980919 40.570572 21.12343 43.439812 19.321341 46.214607 C 18.94002 46.797195 18.5091 47.240402 18.028568 47.544243 C 17.548038 47.848087 17.043779 48 16.515776 48 C 15.987514 48 15.483513 47.848087 15.003757 47.544243 C 14.524003 47.240402 14.092694 46.797195 13.709822 46.214607 C 11.918857 43.4543 10.07178 40.601101 8.168539 37.654915 C 6.265299 34.708736 4.68843 31.838202 3.437881 29.043226 C 2.918417 27.923841 2.395596 26.659927 1.869403 25.251446 C 1.343214 23.842966 0.901042 22.36039 0.542874 20.803673 C 0.184707 19.246958 0.005625 17.683994 0.005625 16.114733 C 0.005625 12.891098 0.693232 10.070881 2.068472 7.653992 C 3.443712 5.237106 5.368783 3.357632 7.843746 2.015507 C 10.318709 0.673382 13.209355 0.001553 16.515776 0 Z"/>
</svg>
